
<svg width="200" height="200" viewBox="0 0 200 200" fill="none" xmlns="http://www.w3.org/2000/svg">
  <!-- Purple background -->
  <rect width="200" height="200" rx="35" fill="#9B87F5"/>
  
  <!-- Stylized W with flame elements -->
  <path d="M50 50
           C60 90 65 110 80 75
           C95 40 100 100 100 120
           C100 140 105 100 120 75
           C135 40 140 90 150 50" 
        stroke="white" 
        stroke-width="14" 
        stroke-linecap="round" 
        stroke-linejoin="round"/>
        
  <!-- Additional flame details -->
  <path d="M80 75C70 90 75 100 80 115C85 100 90 90 80 75Z" 
        fill="white" 
        opacity="0.8"/>
  <path d="M120 75C110 90 115 100 120 115C125 100 130 90 120 75Z" 
        fill="white" 
        opacity="0.8"/>
        
  <!-- Rising flame effect -->
  <circle cx="65" cy="60" r="3" fill="white" opacity="0.6"/>
  <circle cx="75" cy="55" r="2" fill="white" opacity="0.5"/>
  <circle cx="135" cy="60" r="3" fill="white" opacity="0.6"/>
  <circle cx="125" cy="55" r="2" fill="white" opacity="0.5"/>
</svg>
