
<svg width="200" height="200" viewBox="0 0 200 200" fill="none" xmlns="http://www.w3.org/2000/svg">
  <!-- Background with gradient -->
  <defs>
    <linearGradient id="purpleGradient" x1="0" y1="0" x2="200" y2="200" gradientUnits="userSpaceOnUse">
      <stop offset="0%" stop-color="#9B87F5"/>
      <stop offset="100%" stop-color="#6E59A5"/>
    </linearGradient>
    <filter id="glow" x="-20%" y="-20%" width="140%" height="140%">
      <feGaussianBlur stdDeviation="8" result="blur"/>
      <feComposite in="SourceGraphic" in2="blur" operator="over"/>
    </filter>
  </defs>
  
  <!-- Rounded background -->
  <rect width="200" height="200" rx="35" fill="url(#purpleGradient)"/>
  
  <!-- Fluid W design -->
  <path d="M50 50C60 90 70 100 80 70C90 40 95 90 100 120C105 150 110 100 120 70C130 40 140 90 150 50" 
        stroke="white" stroke-width="12" stroke-linecap="round" stroke-linejoin="round" filter="url(#glow)"/>
  
  <!-- Sparkle effects -->
  <circle cx="50" cy="50" r="4" fill="white" opacity="0.8"/>
  <circle cx="150" cy="50" r="4" fill="white" opacity="0.8"/>
  <circle cx="100" cy="130" r="4" fill="white" opacity="0.8"/>
  
  <!-- Abstract flame element -->
  <path d="M160 60C175 85 160 110 160 130C140 110 150 85 130 70C150 75 155 65 160 60Z" 
        fill="white" opacity="0.9"/>
  
  <!-- Rising data points (arrow up abstract) -->
  <path d="M30 140L45 120L60 130L75 100L90 110" 
        stroke="white" stroke-width="5" stroke-linecap="round" stroke-linejoin="round"/>
  <circle cx="30" cy="140" r="3" fill="white"/>
  <circle cx="45" cy="120" r="3" fill="white"/>
  <circle cx="60" cy="130" r="3" fill="white"/>
  <circle cx="75" cy="100" r="3" fill="white"/>
  <circle cx="90" cy="110" r="3" fill="white"/>
</svg>
