
<svg width="200" height="200" viewBox="0 0 200 200" fill="none" xmlns="http://www.w3.org/2000/svg">
  <!-- Background with improved gradient -->
  <rect width="200" height="200" rx="35" fill="url(#logo-gradient)"/>
  
  <!-- Flame styled "W" -->
  <path d="M40 150
           C40 110 60 100 75 80
           C85 65 90 90 100 120
           C110 90 115 65 125 80
           C140 100 160 110 160 150
           L130 150
           C130 135 125 120 100 160
           C75 120 70 135 70 150
           L40 150Z" 
        fill="white"/>
  
  <!-- Top flame elements -->
  <path d="M100 120
           C95 100 85 90 90 70
           C95 50 115 70 100 120Z" 
        fill="white"/>
        
  <!-- Gradient definition -->
  <defs>
    <linearGradient id="logo-gradient" x1="0" y1="0" x2="200" y2="200" gradientUnits="userSpaceOnUse">
      <stop offset="0%" stop-color="#9B87F5"/>
      <stop offset="100%" stop-color="#7E69AB"/>
    </linearGradient>
  </defs>
</svg>
